<mxfile host="app.diagrams.net" agent="Mozilla/5.0 (Windows NT 10.0; Win64; x64) AppleWebKit/537.36 (KHTML, like Gecko) Chrome/130.0.0.0 Safari/537.36 Edg/130.0.0.0" version="25.0.3">
  <diagram name="第 1 页" id="NYiNL_q0aWMI_X3lkfls">
    <mxGraphModel dx="830" dy="479" grid="1" gridSize="10" guides="1" tooltips="1" connect="1" arrows="1" fold="1" page="1" pageScale="1" pageWidth="827" pageHeight="1169" math="0" shadow="0">
      <root>
        <mxCell id="0" />
        <mxCell id="1" parent="0" />
        <mxCell id="dSQWNoxk-mgoJdK2Crbu-2" value="" style="rounded=0;whiteSpace=wrap;html=1;" vertex="1" parent="1">
          <mxGeometry x="200" y="80" width="520" height="390" as="geometry" />
        </mxCell>
        <mxCell id="dSQWNoxk-mgoJdK2Crbu-3" value="" style="points=[[0.145,0.145,0],[0.5,0,0],[0.855,0.145,0],[1,0.5,0],[0.855,0.855,0],[0.5,1,0],[0.145,0.855,0],[0,0.5,0]];shape=mxgraph.bpmn.event;html=1;verticalLabelPosition=bottom;labelBackgroundColor=#ffffff;verticalAlign=top;align=center;perimeter=ellipsePerimeter;outlineConnect=0;aspect=fixed;outline=end;symbol=cancel;" vertex="1" parent="1">
          <mxGeometry x="670" y="100" width="30" height="30" as="geometry" />
        </mxCell>
        <mxCell id="dSQWNoxk-mgoJdK2Crbu-4" value="输入" style="text;html=1;align=center;verticalAlign=middle;whiteSpace=wrap;rounded=0;" vertex="1" parent="1">
          <mxGeometry x="210" y="160" width="60" height="30" as="geometry" />
        </mxCell>
        <mxCell id="dSQWNoxk-mgoJdK2Crbu-5" value="输出" style="text;html=1;align=center;verticalAlign=middle;whiteSpace=wrap;rounded=0;" vertex="1" parent="1">
          <mxGeometry x="210" y="220" width="60" height="30" as="geometry" />
        </mxCell>
        <mxCell id="dSQWNoxk-mgoJdK2Crbu-8" value="参数" style="text;html=1;align=center;verticalAlign=middle;whiteSpace=wrap;rounded=0;" vertex="1" parent="1">
          <mxGeometry x="210" y="280" width="60" height="30" as="geometry" />
        </mxCell>
        <mxCell id="dSQWNoxk-mgoJdK2Crbu-9" value="策略" style="text;html=1;align=center;verticalAlign=middle;whiteSpace=wrap;rounded=0;" vertex="1" parent="1">
          <mxGeometry x="210" y="340" width="60" height="30" as="geometry" />
        </mxCell>
        <mxCell id="dSQWNoxk-mgoJdK2Crbu-10" value="输入1" style="rounded=1;whiteSpace=wrap;html=1;" vertex="1" parent="1">
          <mxGeometry x="270" y="160" width="80" height="30" as="geometry" />
        </mxCell>
        <mxCell id="dSQWNoxk-mgoJdK2Crbu-12" value="" style="shape=image;html=1;verticalAlign=top;verticalLabelPosition=bottom;labelBackgroundColor=#ffffff;imageAspect=0;aspect=fixed;image=https://cdn4.iconfinder.com/data/icons/essentials-72/24/039_-_Cross-128.png" vertex="1" parent="1">
          <mxGeometry x="340" y="150" width="18" height="18" as="geometry" />
        </mxCell>
        <mxCell id="dSQWNoxk-mgoJdK2Crbu-13" value="输入2" style="rounded=1;whiteSpace=wrap;html=1;" vertex="1" parent="1">
          <mxGeometry x="380" y="160" width="80" height="30" as="geometry" />
        </mxCell>
        <mxCell id="dSQWNoxk-mgoJdK2Crbu-14" value="" style="shape=image;html=1;verticalAlign=top;verticalLabelPosition=bottom;labelBackgroundColor=#ffffff;imageAspect=0;aspect=fixed;image=https://cdn4.iconfinder.com/data/icons/essentials-72/24/039_-_Cross-128.png" vertex="1" parent="1">
          <mxGeometry x="450" y="150" width="18" height="18" as="geometry" />
        </mxCell>
        <mxCell id="dSQWNoxk-mgoJdK2Crbu-15" value="输入3" style="rounded=1;whiteSpace=wrap;html=1;" vertex="1" parent="1">
          <mxGeometry x="480" y="160" width="80" height="30" as="geometry" />
        </mxCell>
        <mxCell id="dSQWNoxk-mgoJdK2Crbu-16" value="" style="shape=image;html=1;verticalAlign=top;verticalLabelPosition=bottom;labelBackgroundColor=#ffffff;imageAspect=0;aspect=fixed;image=https://cdn4.iconfinder.com/data/icons/essentials-72/24/039_-_Cross-128.png" vertex="1" parent="1">
          <mxGeometry x="550" y="150" width="18" height="18" as="geometry" />
        </mxCell>
        <mxCell id="dSQWNoxk-mgoJdK2Crbu-17" value="新增输入" style="rounded=1;whiteSpace=wrap;html=1;strokeColor=#999999;fontColor=#B3B3B3;" vertex="1" parent="1">
          <mxGeometry x="580" y="160" width="80" height="30" as="geometry" />
        </mxCell>
        <mxCell id="dSQWNoxk-mgoJdK2Crbu-25" value="输出1" style="rounded=1;whiteSpace=wrap;html=1;" vertex="1" parent="1">
          <mxGeometry x="270" y="225" width="80" height="30" as="geometry" />
        </mxCell>
        <mxCell id="dSQWNoxk-mgoJdK2Crbu-26" value="" style="shape=image;html=1;verticalAlign=top;verticalLabelPosition=bottom;labelBackgroundColor=#ffffff;imageAspect=0;aspect=fixed;image=https://cdn4.iconfinder.com/data/icons/essentials-72/24/039_-_Cross-128.png" vertex="1" parent="1">
          <mxGeometry x="340" y="215" width="18" height="18" as="geometry" />
        </mxCell>
        <mxCell id="dSQWNoxk-mgoJdK2Crbu-27" value="输出2" style="rounded=1;whiteSpace=wrap;html=1;" vertex="1" parent="1">
          <mxGeometry x="380" y="225" width="80" height="30" as="geometry" />
        </mxCell>
        <mxCell id="dSQWNoxk-mgoJdK2Crbu-28" value="" style="shape=image;html=1;verticalAlign=top;verticalLabelPosition=bottom;labelBackgroundColor=#ffffff;imageAspect=0;aspect=fixed;image=https://cdn4.iconfinder.com/data/icons/essentials-72/24/039_-_Cross-128.png" vertex="1" parent="1">
          <mxGeometry x="450" y="215" width="18" height="18" as="geometry" />
        </mxCell>
        <mxCell id="dSQWNoxk-mgoJdK2Crbu-29" value="输出3" style="rounded=1;whiteSpace=wrap;html=1;" vertex="1" parent="1">
          <mxGeometry x="480" y="225" width="80" height="30" as="geometry" />
        </mxCell>
        <mxCell id="dSQWNoxk-mgoJdK2Crbu-30" value="" style="shape=image;html=1;verticalAlign=top;verticalLabelPosition=bottom;labelBackgroundColor=#ffffff;imageAspect=0;aspect=fixed;image=https://cdn4.iconfinder.com/data/icons/essentials-72/24/039_-_Cross-128.png" vertex="1" parent="1">
          <mxGeometry x="550" y="215" width="18" height="18" as="geometry" />
        </mxCell>
        <mxCell id="dSQWNoxk-mgoJdK2Crbu-31" value="新增输出" style="rounded=1;whiteSpace=wrap;html=1;strokeColor=#999999;fontColor=#B3B3B3;" vertex="1" parent="1">
          <mxGeometry x="580" y="225" width="80" height="30" as="geometry" />
        </mxCell>
        <mxCell id="dSQWNoxk-mgoJdK2Crbu-32" value="参数1" style="rounded=1;whiteSpace=wrap;html=1;" vertex="1" parent="1">
          <mxGeometry x="270" y="285" width="80" height="30" as="geometry" />
        </mxCell>
        <mxCell id="dSQWNoxk-mgoJdK2Crbu-33" value="" style="shape=image;html=1;verticalAlign=top;verticalLabelPosition=bottom;labelBackgroundColor=#ffffff;imageAspect=0;aspect=fixed;image=https://cdn4.iconfinder.com/data/icons/essentials-72/24/039_-_Cross-128.png" vertex="1" parent="1">
          <mxGeometry x="340" y="275" width="18" height="18" as="geometry" />
        </mxCell>
        <mxCell id="dSQWNoxk-mgoJdK2Crbu-34" value="参数2" style="rounded=1;whiteSpace=wrap;html=1;" vertex="1" parent="1">
          <mxGeometry x="380" y="285" width="80" height="30" as="geometry" />
        </mxCell>
        <mxCell id="dSQWNoxk-mgoJdK2Crbu-35" value="" style="shape=image;html=1;verticalAlign=top;verticalLabelPosition=bottom;labelBackgroundColor=#ffffff;imageAspect=0;aspect=fixed;image=https://cdn4.iconfinder.com/data/icons/essentials-72/24/039_-_Cross-128.png" vertex="1" parent="1">
          <mxGeometry x="450" y="275" width="18" height="18" as="geometry" />
        </mxCell>
        <mxCell id="dSQWNoxk-mgoJdK2Crbu-36" value="参数3" style="rounded=1;whiteSpace=wrap;html=1;" vertex="1" parent="1">
          <mxGeometry x="480" y="285" width="80" height="30" as="geometry" />
        </mxCell>
        <mxCell id="dSQWNoxk-mgoJdK2Crbu-37" value="" style="shape=image;html=1;verticalAlign=top;verticalLabelPosition=bottom;labelBackgroundColor=#ffffff;imageAspect=0;aspect=fixed;image=https://cdn4.iconfinder.com/data/icons/essentials-72/24/039_-_Cross-128.png" vertex="1" parent="1">
          <mxGeometry x="550" y="275" width="18" height="18" as="geometry" />
        </mxCell>
        <mxCell id="dSQWNoxk-mgoJdK2Crbu-38" value="新增参数" style="rounded=1;whiteSpace=wrap;html=1;strokeColor=#999999;fontColor=#B3B3B3;" vertex="1" parent="1">
          <mxGeometry x="580" y="285" width="80" height="30" as="geometry" />
        </mxCell>
        <mxCell id="dSQWNoxk-mgoJdK2Crbu-39" value="策略1" style="rounded=1;whiteSpace=wrap;html=1;" vertex="1" parent="1">
          <mxGeometry x="270" y="345" width="80" height="30" as="geometry" />
        </mxCell>
        <mxCell id="dSQWNoxk-mgoJdK2Crbu-40" value="" style="shape=image;html=1;verticalAlign=top;verticalLabelPosition=bottom;labelBackgroundColor=#ffffff;imageAspect=0;aspect=fixed;image=https://cdn4.iconfinder.com/data/icons/essentials-72/24/039_-_Cross-128.png" vertex="1" parent="1">
          <mxGeometry x="340" y="335" width="18" height="18" as="geometry" />
        </mxCell>
        <mxCell id="dSQWNoxk-mgoJdK2Crbu-41" value="策略2" style="rounded=1;whiteSpace=wrap;html=1;" vertex="1" parent="1">
          <mxGeometry x="380" y="345" width="80" height="30" as="geometry" />
        </mxCell>
        <mxCell id="dSQWNoxk-mgoJdK2Crbu-42" value="" style="shape=image;html=1;verticalAlign=top;verticalLabelPosition=bottom;labelBackgroundColor=#ffffff;imageAspect=0;aspect=fixed;image=https://cdn4.iconfinder.com/data/icons/essentials-72/24/039_-_Cross-128.png" vertex="1" parent="1">
          <mxGeometry x="450" y="335" width="18" height="18" as="geometry" />
        </mxCell>
        <mxCell id="dSQWNoxk-mgoJdK2Crbu-43" value="策略3" style="rounded=1;whiteSpace=wrap;html=1;" vertex="1" parent="1">
          <mxGeometry x="480" y="345" width="80" height="30" as="geometry" />
        </mxCell>
        <mxCell id="dSQWNoxk-mgoJdK2Crbu-44" value="" style="shape=image;html=1;verticalAlign=top;verticalLabelPosition=bottom;labelBackgroundColor=#ffffff;imageAspect=0;aspect=fixed;image=https://cdn4.iconfinder.com/data/icons/essentials-72/24/039_-_Cross-128.png" vertex="1" parent="1">
          <mxGeometry x="550" y="335" width="18" height="18" as="geometry" />
        </mxCell>
        <mxCell id="dSQWNoxk-mgoJdK2Crbu-45" value="新增策略" style="rounded=1;whiteSpace=wrap;html=1;strokeColor=#999999;fontColor=#B3B3B3;" vertex="1" parent="1">
          <mxGeometry x="580" y="345" width="80" height="30" as="geometry" />
        </mxCell>
      </root>
    </mxGraphModel>
  </diagram>
</mxfile>
